<svg width="53" height="43" viewBox="0 0 53 43" fill="none" xmlns="http://www.w3.org/2000/svg">
<path d="M45.0441 8.8632C44.3406 8.16173 43.2364 8.05829 42.4141 8.61709C39.3163 10.7228 23.7781 21.3115 22.1082 22.9768C19.6866 25.3919 19.6866 29.3213 22.1082 31.7365C23.319 32.9439 24.9097 33.5477 26.5001 33.5477C28.0905 33.5477 29.681 32.9439 30.8919 31.7365C32.5618 30.0711 43.1794 14.5755 45.291 11.4861C45.8511 10.6662 45.7475 9.56487 45.0441 8.8632ZM27.9639 28.8165C27.1568 29.6216 25.8433 29.6216 25.0362 28.8165C24.229 28.0116 24.2288 26.7021 25.0358 25.8971C25.6846 25.2577 30.0961 22.12 35.5239 18.3575C31.7511 23.7704 28.6049 28.1697 27.9639 28.8165Z" fill="#2F3035"/>
<path d="M9.54735 36.9596L6.99155 38.203C5.12143 34.8745 4.14062 31.1595 4.14062 27.3565C4.14062 24.5702 4.65582 21.9015 5.59605 19.4403L8.52461 20.8412C8.81342 20.9793 9.11827 21.0448 9.41857 21.0448C10.1901 21.0448 10.9307 20.6127 11.2867 19.8726C11.7811 18.8445 11.3463 17.6112 10.3153 17.118L7.42393 15.7349C11.0177 9.88986 17.2356 5.81475 24.4298 5.15303V8.25837C24.4298 9.39868 25.3567 10.323 26.5001 10.323C27.6435 10.323 28.5704 9.39868 28.5704 8.25837V5.15148C31.037 5.37539 33.4236 6.00181 35.6893 7.02175C36.7312 7.49094 37.9575 7.02856 38.428 5.98952C38.8985 4.95018 38.435 3.72739 37.3928 3.25819C33.9596 1.7127 30.2948 0.928955 26.5 0.928955C19.4216 0.928955 12.7669 3.67783 7.7616 8.66934C2.75652 13.661 0 20.2975 0 27.3565C0 32.5729 1.55253 37.6461 4.48978 42.0274C4.88542 42.6174 5.53953 42.9448 6.21218 42.9448C6.51796 42.9448 6.82768 42.8772 7.11866 42.7356L11.3628 40.671C12.3905 40.171 12.8172 38.935 12.3159 37.9101C11.8145 36.8853 10.575 36.4599 9.54735 36.9596Z" fill="#2F3035"/>
<path d="M50.6643 16.4936C50.194 15.4544 48.968 14.9919 47.9255 15.4613C46.8834 15.9305 46.42 17.1533 46.8905 18.1925C48.197 21.0787 48.8594 24.1619 48.8594 27.3566C48.8594 31.1652 47.8754 34.8863 45.9998 38.2185L43.3315 36.9513C42.2994 36.4612 41.0639 36.8982 40.5722 37.9278C40.0806 38.9572 40.519 40.1893 41.5513 40.6796L45.899 42.7442C46.185 42.88 46.4882 42.9449 46.788 42.9449C47.4608 42.9449 48.1151 42.6171 48.5102 42.0276C51.4475 37.6462 53.0001 32.5729 53.0001 27.3566C53.0001 23.5722 52.2142 19.9173 50.6643 16.4936Z" fill="#2F3035"/>
</svg>
